<svg width="79" height="73" viewBox="0 0 79 73" fill="none" xmlns="http://www.w3.org/2000/svg">
<path d="M5.58887 1.46191V1.4707H74.8018C76.8417 1.4707 78.4998 3.1291 78.5 5.16895V56.0596C78.4992 57.9997 76.9987 59.594 75.0957 59.7441L75.0879 59.7578H4.19824C2.15828 59.7578 0.50006 58.0995 0.5 56.0596V5.16016C0.5 3.12016 2.15827 1.46191 4.19824 1.46191H5.58887ZM4.0752 4.25195C3.62845 4.31184 3.28144 4.69407 3.28125 5.15918V56.0586C3.28125 56.5661 3.68937 56.9754 4.19727 56.9756H74.8008C75.3084 56.9756 75.7178 56.5666 75.7178 56.0586L75.7168 5.16895C75.7168 4.66131 75.3078 4.25195 74.7998 4.25195H4.0752Z" fill="#0E2E40" stroke="#0E2E40"/>
<path d="M47.8391 56.9844V71.6221H31.1613V56.9844H47.8391ZM33.9426 68.8408H45.0578V59.7656H33.9426V68.8408Z" fill="#0E2E40" stroke="#0E2E40"/>
<path d="M25 69.9619H54V72.9619H25V69.9619Z" fill="#0E2E40"/>
<path d="M2 46.9619H77V49.9619H2V46.9619Z" fill="#0E2E40"/>
<path d="M20.5363 32.5685H14.8707C14.336 32.5685 13.9088 32.1406 13.9088 31.6066V18.6635C13.9088 18.1288 14.3367 17.7017 14.8707 17.7017H20.5363C21.0795 17.7017 21.4982 18.1203 21.4982 18.6635V31.6066C21.4982 32.1406 21.0703 32.5685 20.5363 32.5685ZM15.6903 30.7869H19.7165V19.4831H15.6903V30.7869Z" fill="#078496"/>
<path d="M16.8211 31.6685H18.6027V36.9954H16.8211V31.6685Z" fill="#078496"/>
<path d="M16.8211 15.0913H18.6027V18.5921H16.8211V15.0913Z" fill="#078496"/>
<path d="M35.064 33.7185H29.3983C28.8637 33.7185 28.4365 33.2907 28.4365 32.7567V24.5351C28.4365 24.0004 28.8644 23.5732 29.3983 23.5732H35.064C35.5987 23.5732 36.0259 24.0011 36.0259 24.5351V32.7567C36.0266 33.2907 35.5987 33.7185 35.064 33.7185ZM30.2187 31.937H34.2449V25.3541H30.2187V31.937Z" fill="#078496"/>
<path d="M31.3488 32.8184H33.1304V40.8533H31.3488V32.8184Z" fill="#078496"/>
<path d="M31.3488 18.9409H33.1304V24.4638H31.3488V18.9409Z" fill="#078496"/>
<path d="M49.5917 35.0184H43.926C43.3913 35.0184 42.9642 34.5905 42.9642 34.0566V19.7682C42.9642 19.2335 43.3921 18.8064 43.926 18.8064L49.5917 18.8057C50.1264 18.8057 50.5536 19.2335 50.5536 19.7675V34.0558C50.5543 34.5905 50.1264 35.0184 49.5917 35.0184ZM44.7456 33.2369H48.7719V20.588H44.7456V33.2369Z" fill="#078496"/>
<path d="M45.8693 34.1201H47.6508V38.1111H45.8693V34.1201Z" fill="#078496"/>
<path d="M45.8693 14.4146H47.6508V19.697H45.8693V14.4146Z" fill="#078496"/>
<path d="M64.1122 28.9803H58.4465C57.9118 28.9803 57.4846 28.5524 57.4846 28.0184L57.4854 12.5724C57.4854 12.0377 57.9132 11.6106 58.4472 11.6106L64.1122 11.6099C64.6468 11.6099 65.074 12.0377 65.074 12.5717V28.0177C65.0747 28.5524 64.6468 28.9803 64.1122 28.9803ZM59.2668 27.1987H63.2931V13.3913H59.2668V27.1987Z" fill="#078496"/>
<path d="M60.397 28.0801H62.1785V31.5902H60.397V28.0801Z" fill="#078496"/>
<path d="M60.397 9.67627H62.1785V12.5003H60.397V9.67627Z" fill="#078496"/>
</svg>
