<svg width="114" height="114" viewBox="0 0 114 114" fill="none" xmlns="http://www.w3.org/2000/svg">
<path d="M87.2928 37.2928L76.7284 26.7284C65.8327 15.8327 48.1673 15.8327 37.2716 26.7284L26.7072 37.2928C15.8115 48.1885 15.8115 65.8539 26.7072 76.7496L37.2716 87.314C48.1673 98.2097 65.8327 98.2097 76.7284 87.314L87.2928 76.7496C98.1885 65.8539 98.1885 48.1885 87.2928 37.2928Z" stroke="#009BA4" stroke-width="8.89009"/>
<path d="M47 73H37V58.0002C37 57.4479 37.4477 57.0002 38 57.0002H46.0001C46.2651 57.0002 46.5196 57.1055 46.7072 57.2931C46.8948 57.4806 47.0001 57.7348 47.0001 58.0002L47 73ZM61.9999 42C61.9999 41.7346 61.8942 41.4805 61.707 41.2929C61.5195 41.1053 61.2649 41 60.9999 41H52.9999C52.4476 41 51.9999 41.4477 51.9999 42V73H61.9998L61.9999 42ZM76.0005 49H68C67.4477 49 67 49.4477 67 50V72.9999H77V50C77 49.7346 76.8947 49.4805 76.7071 49.2929C76.5195 49.1053 76.2654 49 76 49L76.0005 49Z" fill="#009BA4"/>
</svg>
