<svg width="78" height="101" viewBox="0 0 78 101" fill="none" xmlns="http://www.w3.org/2000/svg">
<path d="M47.1071 61.558C45.6638 63.0013 43.9795 63.9638 41.5737 64.2047C41.5737 65.4072 41.8146 67.0914 40.8521 67.813C39.4087 69.2563 36.2814 68.2938 36.5211 65.8879V64.2038C33.8744 63.9629 31.4686 63.0013 29.5444 61.798C26.6577 59.8729 29.3035 55.0612 32.4311 57.467C35.0778 58.9103 38.686 59.8728 41.3327 58.4295C43.2577 57.227 42.2952 54.8212 40.1303 54.3394C36.762 53.137 32.191 52.8961 30.0261 50.0085C26.4179 45.4378 30.5069 38.701 36.2811 37.9794V36.0544C36.2811 34.6111 37.4836 33.4077 38.9278 33.4077C40.3711 33.4077 41.5745 34.3702 41.5745 36.0544V37.7386C43.4995 37.9795 45.6646 38.9411 47.5886 40.1444C50.4753 42.3094 47.8294 46.8812 44.7019 44.4754C42.7769 43.2729 38.9278 42.0696 36.7627 43.5129C35.3193 44.4754 35.3194 46.3996 37.0035 47.1211C40.3718 48.5644 45.9052 48.5644 48.0701 51.9327C49.7534 54.8213 49.513 59.3922 47.1071 61.558Z" fill="#078496"/>
<path d="M38.7343 100.962C38.4935 100.962 38.0127 100.962 37.7718 100.721C36.3285 99.9994 0 83.6395 0 62.2272V26.6214C0 25.8998 0.480816 24.9372 1.20247 24.6964L37.2896 1.36033C38.0113 0.879508 38.9738 0.879509 39.6954 1.11947C39.6954 1.11947 39.9363 1.36033 40.1762 1.36033L76.2634 24.6964C76.985 25.1772 77.4658 25.8989 77.4658 26.6214V62.4679C77.4667 83.3986 40.4183 100.962 38.7336 100.962L38.7343 100.962ZM4.81098 27.825V62.2274C4.81098 78.5865 32.9582 93.2627 38.7321 95.9101C44.2655 93.2634 72.4147 78.8285 72.4147 62.2274V27.825L38.7343 5.93155L4.81098 27.825ZM39.9354 90.1339C50.2804 84.8414 67.842 72.8124 67.842 62.4681V51.1606C67.842 49.7172 66.8795 48.7548 65.4362 48.7548C63.9929 48.7548 63.0304 49.7173 63.0304 51.1606V62.4681C63.0304 68.9639 50.7604 79.068 38.9723 85.323C36.3256 83.8797 33.6798 82.4363 31.274 80.7523C30.0715 80.0306 28.6272 80.2715 27.9057 81.4739C27.1841 82.6764 27.4249 84.1207 28.6273 84.8422C31.514 86.7672 34.8823 88.6914 38.0099 90.3756C38.2508 90.6165 38.7316 90.6165 39.2124 90.6165C39.6941 90.6165 39.6941 90.3756 39.9349 90.1348L39.9354 90.1339ZM52.4453 23.7335C53.167 22.5311 52.9262 21.0868 51.9645 20.3653L49.7996 18.6811C48.837 17.9594 47.1528 18.2003 46.4313 19.1619C45.7096 20.3644 45.9505 21.8086 46.9121 22.5302L49.0771 24.2143C49.5579 24.4552 50.0396 24.6952 50.5204 24.6952C51.2429 24.936 51.9646 24.4552 52.4453 23.7335ZM14.4328 40.5744V33.1161L38.4909 17.4786L40.1751 18.681C41.3776 19.4027 42.8218 19.1618 43.5434 17.9594C44.265 16.7569 44.0242 15.3127 42.8217 14.5911L39.6941 12.6661C38.9725 12.1853 37.7691 12.1853 37.0474 12.6661L10.5826 29.7477C9.86095 30.2285 9.38013 30.9501 9.38013 31.6727V40.5743C9.38013 42.0177 10.3426 42.9802 11.7859 42.9802C13.2293 42.9802 14.4317 42.0176 14.4317 40.5743L14.4328 40.5744ZM24.297 78.8276C25.2595 77.8651 25.0186 76.1809 24.0561 75.4593C23.0936 74.7377 22.1311 73.7751 21.4094 73.0535C20.4469 72.091 19.0036 72.091 18.0411 73.0535C17.0787 74.016 17.0786 75.4593 18.0411 76.4218C19.0036 77.3843 19.9662 78.106 20.9278 79.0685C21.4087 79.5493 21.8903 79.5493 22.3712 79.5493C23.0937 79.5493 23.8153 79.3084 24.297 78.8276Z" fill="#0E2E40"/>
</svg>
