<svg width="65" height="69" viewBox="0 0 65 69" fill="none" xmlns="http://www.w3.org/2000/svg">
<path d="M49.0673 1.86491C47.8633 0.660915 45.9115 0.660915 44.7075 1.86491C43.5036 3.06891 43.5036 5.02074 44.7075 6.22471L53.8322 15.3494H3.72462C2.02195 15.3494 0.641564 16.7297 0.641564 18.4324C0.641657 20.135 2.02201 21.5155 3.72462 21.5155H53.8322L44.7075 30.6401C43.5036 31.8442 43.5036 33.7959 44.7075 34.9999C45.9115 36.2038 47.8634 36.2038 49.0673 34.9999L63.4549 20.6123C63.5268 20.5404 63.5949 20.4648 63.6594 20.3862C63.7076 20.3276 63.7526 20.2672 63.7958 20.206C63.811 20.1843 63.8269 20.1631 63.8416 20.1411C63.8579 20.1167 63.8733 20.0918 63.8888 20.067C63.8983 20.052 63.9078 20.037 63.917 20.0218C63.9362 19.9899 63.9548 19.9578 63.9727 19.9254C63.9788 19.9145 63.9851 19.9037 63.9911 19.8927C64.0068 19.8635 64.021 19.8337 64.0356 19.8042C64.0444 19.7865 64.0534 19.769 64.0619 19.7511C64.0751 19.723 64.0881 19.6949 64.1005 19.6666C64.1072 19.6512 64.1144 19.6361 64.1208 19.6207C64.1316 19.5948 64.1416 19.5687 64.1517 19.5427C64.2145 19.38 64.2638 19.2107 64.2985 19.036C64.3034 19.0114 64.3079 18.9867 64.3122 18.962C64.3166 18.9367 64.3209 18.9114 64.3247 18.886C64.3274 18.8676 64.3295 18.8493 64.3319 18.8309C64.3423 18.7505 64.3508 18.6693 64.3548 18.5871C64.3623 18.437 64.358 18.2865 64.3437 18.1368C64.3404 18.1023 64.3363 18.0681 64.3319 18.0339C64.3294 18.0149 64.3275 17.9959 64.3247 17.9769C64.3211 17.953 64.317 17.9292 64.3129 17.9055C64.3082 17.8785 64.3032 17.8517 64.2978 17.8248C64.2627 17.649 64.2127 17.4786 64.149 17.3149C64.1397 17.2908 64.1302 17.2668 64.1202 17.2428C64.1147 17.2297 64.1088 17.2166 64.1032 17.2035C64.0897 17.1726 64.0763 17.1416 64.0619 17.1111C64.0542 17.095 64.0462 17.0792 64.0383 17.0633C63.9793 16.9442 63.9124 16.8281 63.8371 16.7159C63.8281 16.7026 63.8186 16.6897 63.8095 16.6766C63.7901 16.6486 63.7703 16.6208 63.7499 16.5933C63.7385 16.5781 63.7268 16.5631 63.7151 16.5481C63.6968 16.5244 63.6786 16.5006 63.6594 16.4773C63.642 16.4561 63.6236 16.4358 63.6057 16.4151C63.5919 16.3992 63.5786 16.3829 63.5644 16.3672L63.4549 16.2525L49.0673 1.86491Z" fill="#0E2E40"/>
<path d="M15.9327 34.0798C17.1367 32.8758 19.0885 32.8758 20.2925 34.0798C21.4964 35.2838 21.4964 37.2356 20.2925 38.4396L11.1678 47.5642H61.2754C62.978 47.5642 64.3584 48.9445 64.3584 50.6473C64.3583 52.3499 62.978 53.7303 61.2754 53.7303H11.1678L20.2925 62.855C21.4964 64.059 21.4964 66.0107 20.2925 67.2148C19.0885 68.4186 17.1366 68.4186 15.9327 67.2148L1.54505 52.8272C1.47318 52.7553 1.40509 52.6797 1.34056 52.601C1.2924 52.5424 1.24741 52.482 1.20424 52.4208C1.18898 52.3992 1.17307 52.378 1.15836 52.3559C1.14207 52.3315 1.12668 52.3066 1.11117 52.2819C1.10174 52.2668 1.09216 52.2518 1.08299 52.2366C1.06379 52.2048 1.04522 52.1727 1.02728 52.1403C1.0212 52.1293 1.01486 52.1185 1.00892 52.1075C0.993241 52.0784 0.979033 52.0486 0.964356 52.019C0.955562 52.0014 0.946602 51.9838 0.938139 51.9659C0.924861 51.9379 0.911854 51.9098 0.89947 51.8814C0.892771 51.8661 0.885608 51.851 0.879152 51.8355C0.868377 51.8097 0.858389 51.7836 0.848348 51.7575C0.785508 51.5948 0.736222 51.4255 0.701535 51.2509C0.696638 51.2262 0.692064 51.2016 0.687772 51.1768C0.683397 51.1516 0.679075 51.1263 0.675319 51.1008C0.672609 51.0825 0.670489 51.0641 0.668109 51.0457C0.657729 50.9654 0.649235 50.8841 0.64517 50.8019C0.637671 50.6519 0.641988 50.5013 0.656312 50.3517C0.659591 50.3172 0.663704 50.2829 0.668109 50.2488C0.670571 50.2298 0.672504 50.2107 0.675319 50.1917C0.678861 50.1678 0.683028 50.144 0.687116 50.1203C0.691762 50.0934 0.696827 50.0665 0.702191 50.0397C0.73733 49.8638 0.787297 49.6934 0.850969 49.5298C0.860326 49.5057 0.869822 49.4816 0.879808 49.4577C0.885327 49.4445 0.891152 49.4315 0.896848 49.4184C0.910264 49.3875 0.923663 49.3565 0.938139 49.3259C0.945772 49.3099 0.953833 49.294 0.961734 49.2781C1.02072 49.1591 1.08763 49.0429 1.16295 48.9307C1.17186 48.9174 1.18135 48.9045 1.19047 48.8914C1.20989 48.8634 1.22966 48.8356 1.25012 48.8082C1.26147 48.7929 1.27323 48.778 1.28485 48.7629C1.30319 48.7393 1.32144 48.7154 1.34056 48.6922C1.35796 48.671 1.37636 48.6506 1.39431 48.6299C1.40808 48.614 1.42144 48.5977 1.4356 48.5821L1.54505 48.4674L15.9327 34.0798Z" fill="#078496"/>
</svg>
