<svg width="113" height="114" viewBox="0 0 113 114" fill="none" xmlns="http://www.w3.org/2000/svg">
<path d="M86.2928 37.2928L75.7284 26.7284C64.8327 15.8327 47.1673 15.8327 36.2716 26.7284L25.7072 37.2928C14.8115 48.1885 14.8115 65.8539 25.7072 76.7496L36.2716 87.314C47.1673 98.2097 64.8327 98.2097 75.7284 87.314L86.2928 76.7496C97.1885 65.8539 97.1885 48.1885 86.2928 37.2928Z" stroke="#009BA4" stroke-width="8.89009"/>
<path d="M58.1679 59.0483C58.9486 58.5284 59.429 57.6235 59.429 56.6439C59.429 55.6644 58.9487 54.7595 58.1462 54.225L55.0359 52.0707V43.4651C55.0359 42.9234 55.3433 42.4253 55.8265 42.1619C56.2952 41.9131 56.8808 41.957 57.3346 42.2644L76.37 55.4433C76.7657 55.707 77 56.1612 77 56.6444C77 57.1275 76.7657 57.5817 76.3704 57.8451L57.3349 71.024C57.0861 71.1998 56.7933 71.2874 56.5004 71.2874C56.2661 71.2874 56.0318 71.2289 55.8269 71.1264C55.3437 70.863 55.036 70.3649 55.036 69.8232V61.2177L58.1679 59.0483Z" fill="#009BA4"/>
<path d="M36 43.4653V69.8222C36 70.3639 36.3074 70.862 36.7906 71.1254C36.9958 71.2278 37.2302 71.2863 37.4641 71.2863C37.757 71.2863 38.0498 71.1984 38.2986 71.0229L57.3341 57.844C57.7297 57.5803 57.9641 57.1265 57.9641 56.6433C57.9641 56.1602 57.7297 55.706 57.3345 55.4426L38.299 42.2637C37.8449 41.956 37.2592 41.9121 36.7905 42.1609C36.3074 42.4247 36 42.9224 36 43.4641L36 43.4653Z" fill="#009BA4"/>
</svg>
