<svg width="99" height="88" viewBox="0 0 99 88" fill="none" xmlns="http://www.w3.org/2000/svg">
<path d="M21.0107 40.9268C23.456 40.9268 25.4521 42.9228 25.4521 45.3682V47.96C28.0315 47.9142 33.2988 47.8565 39.1406 47.999C45.109 48.138 51.7801 51.0064 57.126 55.6523H67.6484C71.1421 55.6526 73.9824 58.4172 74.1426 61.874L89.3271 54.8574C91.1901 53.9745 93.3288 54.0383 95.1406 55.0156L95.499 55.2236L95.5 55.2246C97.3727 56.4005 98.5 58.44 98.5 60.6582C98.4998 62.9488 97.2545 65.071 95.2559 66.2031C94.6072 66.6793 87.5377 71.7465 79.0332 76.8057C74.7428 79.358 70.0787 81.9137 65.6846 83.8779C61.3031 85.8365 57.1397 87.2303 53.8672 87.415L53.8662 87.4141C53.6901 87.4304 53.5061 87.4316 53.3652 87.4316C51.4495 87.4316 49.0235 86.8608 46.4121 85.9834C43.7909 85.1027 40.9422 83.8986 38.167 82.6035C33.0998 80.2388 28.2517 77.5553 25.4365 75.9414V77.3398C25.4364 79.785 23.4404 81.7803 20.9951 81.7803H4.94141C2.49626 81.7803 0.500146 79.7851 0.5 77.3398V45.3682C0.5 42.9229 2.49605 40.9268 4.94141 40.9268H21.0107ZM39.0713 51.29C33.2397 51.1477 27.9927 51.2063 25.4531 51.252V72.1299C27.3897 73.2651 32.6015 76.2573 38.2178 78.9717C41.1547 80.3911 44.193 81.7304 46.9248 82.6904C49.6738 83.6565 52.0491 84.2143 53.6885 84.125C56.6029 83.9585 60.5233 82.623 64.8115 80.6641C69.0847 78.712 73.6688 76.1673 77.8945 73.6328C84.3809 69.7424 90.0023 65.8859 92.3252 64.2607L92.0596 64.2412L93.5078 63.4287C94.6106 62.81 95.2079 61.7663 95.208 60.6582C95.208 59.576 94.669 58.5909 93.7461 58.0107L93.7432 58.0088C92.8365 57.4304 91.7074 57.3647 90.7334 57.8389L90.7246 57.8428L90.5146 57.3887L90.7236 57.8428L72.7764 66.1328C71.5844 67.6731 69.7369 68.6738 67.6465 68.6738H46.125C45.2219 68.6738 44.4797 67.9302 44.4795 67.0283C44.4795 66.1251 45.223 65.3818 46.125 65.3818H67.6631C68.794 65.3818 69.7991 64.777 70.3701 63.875C70.4979 63.6705 70.6053 63.433 70.6865 63.1885L70.6963 63.1611C70.7306 63.0748 70.743 63.0422 70.748 63.0176L70.75 63.0059L70.7529 62.9951C70.8255 62.7056 70.875 62.4303 70.875 62.1699C70.875 60.3854 69.4205 58.9426 67.6484 58.9424H56.5127C56.111 58.9424 55.7221 58.7889 55.4229 58.5322L55.4141 58.5244C50.5175 54.1096 44.3951 51.4088 39.0723 51.29H39.0713ZM4.94336 44.2168C4.31518 44.2168 3.79305 44.7296 3.79297 45.3672L3.79199 77.3525C3.79199 77.9808 4.30469 78.5029 4.94238 78.5029L21.0117 78.5039C21.579 78.5039 22.0586 78.0858 22.1465 77.5352V77.3555L22.1475 45.3672C22.1474 44.739 21.6347 44.2168 20.9971 44.2168H4.94336Z" fill="#0E2E40" stroke="#0E2E40"/>
<path d="M16.0465 66.6149C13.7249 66.6149 11.8302 68.5089 11.8302 70.8312C11.8302 73.1529 13.7242 75.0475 16.0465 75.0475C18.3682 75.0475 20.2629 73.1535 20.2629 70.8312C20.2629 68.5089 18.3689 66.6149 16.0465 66.6149ZM16.0465 72.7401C14.9928 72.7401 14.122 71.8849 14.122 70.8156C14.122 69.7462 14.9772 68.8911 16.0465 68.8911C17.1159 68.8911 17.971 69.7462 17.971 70.8156C17.9718 71.8849 17.101 72.7401 16.0465 72.7401Z" fill="#078496"/>
<path d="M67.8013 48.4696C79.2122 48.4696 89.1711 40.4041 91.5084 29.2684C92.0892 26.3816 92.1955 23.7849 91.875 21.3858C90.4547 9.19628 80.1131 0 67.8016 0C54.4356 0 43.5602 10.8764 43.5602 24.2274C43.5602 37.5942 54.4366 48.4688 67.8016 48.4688L67.8013 48.4696ZM67.8013 2.27606C78.937 2.27606 88.3166 10.6011 89.5993 21.6454C89.8893 23.8145 89.783 26.1666 89.2632 28.7947C87.155 38.8761 78.1274 46.1777 67.8013 46.1777C55.7032 46.1777 45.8511 36.3255 45.8511 24.2276C45.8504 12.1295 55.6878 2.27546 67.8013 2.27546L67.8013 2.27606Z" fill="#078496"/>
<path d="M67.8012 40.5875C76.814 40.5875 84.1462 33.2553 84.1462 24.2425C84.1462 15.2297 76.814 7.89746 67.8012 7.89746C58.7884 7.89746 51.4561 15.2297 51.4561 24.2425C51.4561 33.2553 58.7884 40.5875 67.8012 40.5875ZM67.8012 10.1747C75.5461 10.1747 81.8544 16.4836 81.8544 24.2279C81.8544 31.9728 75.5455 38.281 67.8012 38.281C60.0563 38.281 53.748 31.9722 53.748 24.2279C53.7472 16.4838 60.0561 10.1747 67.8012 10.1747Z" fill="#078496"/>
<path d="M67.8013 25.3729C69.0691 25.3729 70.1079 26.4118 70.1079 27.6796C70.1079 28.9475 69.0691 29.9863 67.8013 29.9863C66.5334 29.9863 65.4946 28.9474 65.4946 27.6796C65.4946 27.0535 64.9755 26.5337 64.3486 26.5337C63.7225 26.5337 63.2027 27.0527 63.2027 27.6796C63.2027 29.8184 64.6847 31.6208 66.6702 32.1251L66.6858 33.1788C66.7015 33.8049 67.2049 34.3091 67.8318 34.3091H67.8474C68.4735 34.2934 68.9934 33.7744 68.9777 33.1483L68.9621 32.1094C70.9327 31.5904 72.3992 29.8028 72.3992 27.6796C72.3992 25.1438 70.3371 23.0816 67.8012 23.0816C66.5334 23.0816 65.4946 22.0428 65.4946 20.775C65.4946 19.5071 66.5334 18.4683 67.8012 18.4683C69.0691 18.4683 70.1079 19.5071 70.1079 20.775C70.1079 21.4011 70.627 21.9209 71.2539 21.9209C71.88 21.9209 72.3998 21.4019 72.3998 20.775C72.3998 18.6362 70.9178 16.8338 68.9323 16.3295L68.9167 15.2758C68.901 14.6497 68.3515 14.2065 67.7559 14.1455C67.1297 14.1611 66.6099 14.6802 66.6256 15.3063L66.6412 16.3452C64.6706 16.8642 63.2041 18.6518 63.2041 20.775C63.2033 23.3108 65.2655 25.3729 67.8013 25.3729Z" fill="#078496"/>
<path d="M75.4074 25.3891H78.0807C78.7068 25.3891 79.2267 24.87 79.2267 24.2431C79.2267 23.617 78.7076 23.0972 78.0807 23.0972H75.4074C74.7813 23.0972 74.2615 23.6162 74.2615 24.2431C74.2623 24.8692 74.7664 25.3891 75.4074 25.3891Z" fill="#078496"/>
<path d="M61.3396 24.2417C61.3396 23.6155 60.8206 23.0957 60.1937 23.0957H57.5204C56.8943 23.0957 56.3745 23.6147 56.3745 24.2417C56.3745 24.8678 56.8935 25.3876 57.5204 25.3876H60.1945C60.8362 25.3876 61.3396 24.8678 61.3396 24.2417Z" fill="#078496"/>
</svg>
