<svg width="97" height="41" viewBox="0 0 97 41" fill="none" xmlns="http://www.w3.org/2000/svg">
<path fill-rule="evenodd" clip-rule="evenodd" d="M35.7992 0H65.2625C65.5128 0 65.6379 0.297015 65.4634 0.470001L61.2955 4.5613C61.2165 4.638 61.1095 4.68369 60.9975 4.68369H52.2534C52.2493 4.68369 52.2452 4.68451 52.2411 4.68533C52.2369 4.68614 52.2328 4.68696 52.2287 4.68696C51.6194 4.70001 51.1287 5.18634 51.1287 5.78689V6.7982H58.4513C58.7135 6.7982 58.8454 7.12155 58.6596 7.30987L57.8402 8.13955L54.2656 11.7639C54.1823 11.8492 54.0695 11.8971 53.9514 11.8971H51.1287V17.0686C51.1287 17.0726 51.1275 17.0763 51.1262 17.08C51.125 17.0837 51.1238 17.0873 51.1238 17.0914C51.1172 17.1926 51.0793 17.2889 51.0052 17.3607L46.8439 21.4471C46.6677 21.6217 46.3648 21.4977 46.3648 21.2529L46.3598 5.78526C46.3598 5.1847 45.8707 4.69838 45.2615 4.68533C45.2573 4.68533 45.2532 4.68451 45.2491 4.68369C45.245 4.68288 45.2409 4.68206 45.2368 4.68206H40.0658C39.9539 4.68206 39.8468 4.638 39.7678 4.5613L35.5999 0.470001C35.4237 0.297015 35.5489 0 35.7992 0Z" fill="white"/>
<path d="M90.3875 39.1377V36.1673H96.5796V34.8304H90.3875V32.3626H96.9063V31.0156H89.3823C89.126 31.0156 88.9199 31.2217 88.9199 31.478V40.0222C88.9199 40.2786 89.126 40.4846 89.3823 40.4846H97.0017V39.1377H90.3825H90.3875Z" fill="white"/>
<path d="M86.7723 35.4744H82.6912C82.4348 35.4744 82.2288 35.6804 82.2288 35.9368V36.359C82.2288 36.6153 82.4348 36.8213 82.6912 36.8213H85.8425V38.9976C85.7319 39.0278 85.6012 39.0579 85.4655 39.0881C85.2243 39.1333 84.9629 39.1785 84.6815 39.2188C84.395 39.2539 84.0834 39.2891 83.7617 39.3142C83.44 39.3394 83.1133 39.3545 82.7917 39.3545C81.9674 39.3545 81.2437 39.259 80.6355 39.078C80.0374 38.8971 79.5348 38.6408 79.1378 38.3241C78.7558 38.0125 78.4643 37.6356 78.2733 37.2083C78.0823 36.7711 77.9868 36.2836 77.9868 35.7609C77.9868 35.203 78.0873 34.6953 78.2783 34.2531C78.4743 33.8158 78.7659 33.4388 79.1529 33.1373C79.5449 32.8257 80.0525 32.5844 80.6556 32.4135C81.2688 32.2427 81.9976 32.1522 82.8319 32.1522C83.239 32.1522 83.621 32.1823 83.9678 32.2376C84.3246 32.2979 84.6563 32.3733 84.9579 32.4738C85.2645 32.5744 85.556 32.69 85.8173 32.8206C86.0837 32.9513 86.3401 33.0971 86.5763 33.2428L87.0286 33.5293V31.8154L86.8477 31.7401C86.531 31.6094 86.2144 31.4887 85.9078 31.3832C85.5912 31.2726 85.2645 31.1771 84.9328 31.1017C84.6011 31.0213 84.2442 30.961 83.8874 30.9208C83.5255 30.8756 83.1284 30.8555 82.7062 30.8555C82.1484 30.8555 81.6055 30.9007 81.0929 30.9861C80.5752 31.0716 80.0827 31.2023 79.6353 31.3782C79.183 31.5491 78.7608 31.7702 78.3839 32.0416C78.0069 32.313 77.6802 32.6347 77.4088 33.0066C77.1424 33.3735 76.9314 33.7907 76.7856 34.248C76.6398 34.7004 76.5645 35.213 76.5645 35.7609C76.5645 36.5851 76.7253 37.3139 77.0419 37.9321C77.3586 38.5453 77.8009 39.068 78.3587 39.4751C78.9116 39.8721 79.57 40.1737 80.3189 40.3747C81.0527 40.5657 81.8619 40.6612 82.7213 40.6612C83.1385 40.6612 83.5406 40.6461 83.9125 40.616C84.2945 40.5858 84.6614 40.5406 85.0182 40.4853C85.3751 40.425 85.7219 40.3496 86.0485 40.2591C86.3803 40.1737 86.717 40.0682 87.0387 39.9526L87.2347 39.8822V35.9368C87.2347 35.6804 87.0286 35.4744 86.7723 35.4744Z" fill="white"/>
<path d="M74.229 32.0169C73.7415 31.65 73.1585 31.3836 72.4951 31.2329C71.8517 31.0871 71.1481 31.0117 70.3992 31.0117H66.0015C65.7451 31.0117 65.5391 31.2178 65.5391 31.4741V40.0183C65.5391 40.2747 65.7451 40.4807 66.0015 40.4807H70.4143C70.9119 40.4807 71.3944 40.4506 71.8467 40.3852C72.3091 40.3199 72.7413 40.2093 73.1334 40.0686C73.5354 39.9228 73.9074 39.7218 74.2341 39.4805C74.5708 39.2343 74.8623 38.9277 75.0935 38.5708C75.3247 38.219 75.5056 37.8019 75.6313 37.3344C75.7569 36.867 75.8223 36.3292 75.8223 35.7412C75.8223 34.8516 75.6816 34.0977 75.4001 33.4946C75.1237 32.8814 74.7266 32.3838 74.229 32.0169ZM74.1034 37.4249C73.9124 37.8521 73.646 38.1939 73.3093 38.4452C72.9675 38.6965 72.5554 38.8824 72.0729 38.988C71.5703 39.0935 71.0074 39.1488 70.3942 39.1488H66.9262V32.3386H70.3942C70.8013 32.3386 71.1933 32.3637 71.5552 32.4089C71.907 32.4542 72.2337 32.5296 72.5353 32.6401C72.8268 32.7407 73.0881 32.8814 73.3193 33.0472C73.5405 33.2081 73.7365 33.4141 73.8923 33.6604C74.0531 33.9017 74.1737 34.1982 74.2592 34.5349C74.3497 34.8817 74.3899 35.2838 74.3899 35.7412C74.3899 36.4197 74.2893 36.9876 74.0984 37.4249H74.1034Z" fill="white"/>
<path d="M63.5281 31.0156H62.1309V40.4846H63.5281V31.0156Z" fill="white"/>
<path d="M59.4463 35.6496C59.8434 35.1973 60.0394 34.5941 60.0394 33.8603C60.0394 33.3929 59.959 32.9758 59.8032 32.6239C59.6373 32.257 59.376 31.9454 59.0241 31.7092C58.6874 31.473 58.2552 31.2971 57.7375 31.1865C57.2349 31.0759 56.6318 31.0156 55.9332 31.0156H51.6811C51.4248 31.0156 51.2188 31.2217 51.2188 31.478V40.4846H52.616V36.685H55.9332C56.0689 36.685 56.2046 36.685 56.3302 36.6799C56.4056 36.6799 56.476 36.6749 56.5463 36.6699L59.2654 40.2987C59.3508 40.4143 59.4916 40.4846 59.6373 40.4846H61.1703L58.0541 36.4588C58.6623 36.2879 59.1297 36.0165 59.4514 35.6546L59.4463 35.6496ZM56.8278 35.2827C56.3503 35.3229 55.7522 35.338 55.0486 35.338H52.616V32.3576H55.0737C55.7723 32.3576 56.3654 32.3827 56.8429 32.4279C57.3002 32.4681 57.6722 32.5486 57.9436 32.6642C58.1848 32.7697 58.3557 32.9054 58.4562 33.0914C58.5617 33.2773 58.617 33.5387 58.617 33.8603C58.617 34.182 58.5618 34.4484 58.4512 34.6344C58.3507 34.8103 58.1798 34.946 57.9335 35.0465C57.6571 35.1621 57.2851 35.2375 56.8278 35.2777V35.2827Z" fill="white"/>
<path d="M49.2453 35.926C49.0241 35.7049 48.7376 35.524 48.3908 35.3933C48.3707 35.3832 48.3506 35.3782 48.3255 35.3682C48.4813 35.2777 48.617 35.1721 48.7276 35.0515C48.9035 34.8706 49.0392 34.6494 49.1196 34.3981C49.2051 34.1569 49.2453 33.8704 49.2453 33.5538C49.2453 33.1969 49.195 32.8803 49.0995 32.6189C49.004 32.3475 48.8683 32.1063 48.6924 31.9153C48.5215 31.7193 48.3154 31.5584 48.0843 31.4428C47.8631 31.3272 47.6219 31.2418 47.3706 31.1815C47.1243 31.1161 46.8629 31.0709 46.5915 31.0508C46.3302 31.0307 46.0688 31.0156 45.8024 31.0156H40.9624C40.7061 31.0156 40.5 31.2217 40.5 31.478V40.0222C40.5 40.2786 40.7061 40.4846 40.9624 40.4846H45.918C46.2548 40.4846 46.5865 40.4695 46.9031 40.4444C47.2248 40.4193 47.5314 40.369 47.8229 40.2987C48.1144 40.2233 48.3858 40.1278 48.6271 40.0021C48.8884 39.8715 49.1146 39.6955 49.2955 39.4895C49.4815 39.2784 49.6323 39.0221 49.7328 38.7356C49.8333 38.4491 49.8836 38.1174 49.8836 37.7404C49.8836 37.3635 49.8333 37.0368 49.7328 36.7403C49.6272 36.4236 49.4614 36.1522 49.2352 35.926H49.2453ZM41.8972 32.3274H45.5361C45.9281 32.3274 46.2648 32.3475 46.5463 32.3877C46.8177 32.4229 47.0439 32.4732 47.2248 32.5435C47.3856 32.5988 47.5113 32.6642 47.5967 32.7395C47.6822 32.8149 47.7475 32.8903 47.7927 32.9758C47.838 33.0562 47.8631 33.1416 47.8782 33.2321C47.8933 33.3427 47.9033 33.4583 47.9033 33.5688C47.9033 33.7498 47.8782 33.9207 47.8229 34.0865C47.7827 34.2172 47.6972 34.3278 47.5565 34.4333C47.4057 34.5489 47.1695 34.6494 46.868 34.7248C46.5413 34.8002 46.0939 34.8404 45.5411 34.8404H41.9023V32.3274H41.8972ZM48.3305 38.4039C48.2602 38.5697 48.1395 38.7004 47.9636 38.811C47.7726 38.9266 47.5063 39.017 47.1796 39.0723C46.8328 39.1276 46.3905 39.1578 45.8728 39.1578H41.9023V36.1321H45.7622C46.2598 36.1321 46.6971 36.1673 47.0589 36.2376C47.4007 36.298 47.6771 36.3985 47.8882 36.5292C48.0843 36.6498 48.225 36.8006 48.3154 36.9916C48.4109 37.1876 48.4612 37.4288 48.4612 37.7203C48.4612 37.9867 48.421 38.2129 48.3356 38.3988L48.3305 38.4039Z" fill="white"/>
<path d="M23.823 31.0156H22.4258V40.4846H23.823V31.0156Z" fill="white"/>
<path d="M19.6815 35.6496C20.0786 35.1973 20.2796 34.5941 20.2796 33.8603C20.2796 33.3929 20.1992 32.9758 20.0434 32.6239C19.8776 32.257 19.6162 31.9454 19.2644 31.7092C18.9276 31.473 18.4954 31.2971 17.9777 31.1865C17.4751 31.0759 16.872 31.0156 16.1734 31.0156H11.9214C11.665 31.0156 11.459 31.2217 11.459 31.478V40.4846H12.8562V36.685H16.1734C16.3091 36.685 16.4448 36.685 16.5704 36.6799C16.6458 36.6799 16.7162 36.6749 16.7866 36.6699L19.5056 40.2987C19.5911 40.4143 19.7318 40.4846 19.8776 40.4846H21.4055L18.2893 36.4588C18.8975 36.2879 19.3649 36.0165 19.6866 35.6546L19.6815 35.6496ZM17.063 35.2827C16.5855 35.3229 15.9824 35.338 15.2838 35.338H12.8512V32.3576H15.3089C16.0075 32.3576 16.6006 32.3827 17.0781 32.4279C17.5354 32.4681 17.9074 32.5486 18.1788 32.6642C18.42 32.7697 18.5909 32.9054 18.6914 33.0914C18.797 33.2773 18.8522 33.5387 18.8522 33.8603C18.8522 34.182 18.797 34.4484 18.6864 34.6344C18.5859 34.8103 18.415 34.946 18.1687 35.0465C17.8923 35.1621 17.5204 35.2375 17.063 35.2777V35.2827Z" fill="white"/>
<path d="M0.908203 32.3425H4.94912V40.4796H6.3363V32.3425H10.3772V31.0156H0.908203V32.3425Z" fill="white"/>
<path d="M30.8774 31.0156H30.3346C30.0983 31.0156 29.8822 31.1463 29.7767 31.3524L25.002 40.4796H26.55L27.7713 38.1425H33.4457L34.667 40.4796H36.215L31.4403 31.3524C31.3297 31.1413 31.1186 31.0156 30.8824 31.0156H30.8774ZM28.4749 36.8106L30.611 32.7245L32.742 36.8106H28.4749Z" fill="white"/>
<path d="M26.0587 28.5282C26.134 28.498 26.1642 28.4126 26.129 28.3422L25.747 27.5732C25.7119 27.5079 25.6314 27.4777 25.5661 27.5129L22.0781 29.2217C22.0077 29.2569 21.9826 29.3374 22.0177 29.4077L22.2992 29.9606C22.3294 30.0259 22.4098 30.051 22.4751 30.0259L26.0637 28.5332L26.0587 28.5282Z" fill="white"/>
</svg>
