<svg width="82" height="22" viewBox="0 0 82 22" fill="none" xmlns="http://www.w3.org/2000/svg">
<path fill-rule="evenodd" clip-rule="evenodd" d="M0.24992 2.89294H26.3978C26.6199 2.89294 26.731 3.15654 26.5761 3.31006L22.8773 6.94098C22.8071 7.00905 22.7121 7.0496 22.6127 7.0496H14.8526C14.849 7.0496 14.8453 7.05032 14.8417 7.05105C14.838 7.05177 14.8343 7.0525 14.8307 7.0525C14.29 7.06408 13.8545 7.49568 13.8545 8.02866V8.92726H20.3532C20.5858 8.92726 20.7029 9.21422 20.5381 9.38135L19.8109 10.1177L16.6385 13.3342C16.5646 13.4098 16.4644 13.4524 16.3596 13.4524H13.8545V18.0408C13.8545 18.0445 13.8534 18.0477 13.8523 18.051C13.8512 18.0542 13.8501 18.0575 13.8501 18.0611C13.8442 18.1509 13.8106 18.2364 13.7449 18.3001L10.0519 21.9267C9.89548 22.0816 9.62658 21.9716 9.62658 21.7543L9.6222 8.02721C9.6222 7.49423 9.18816 7.06263 8.64743 7.05105C8.64378 7.05105 8.64012 7.05032 8.63647 7.0496C8.63282 7.04888 8.62916 7.04815 8.62551 7.04815H4.03645C3.93708 7.04815 3.84208 7.00905 3.77194 6.94098L0.0730886 3.31006C-0.0832831 3.15654 0.0277847 2.89294 0.24992 2.89294Z" fill="white"/>
<path d="M75.9859 20.6718V18.3275H80.869V17.2719H75.9859V15.3252H81.129V14.2645H75.1931C74.992 14.2645 74.8282 14.4283 74.8282 14.6294V21.3676C74.8282 21.5689 74.992 21.7327 75.1931 21.7327H81.2055V20.6718H75.9859Z" fill="white"/>
<path d="M73.1376 17.7821H69.9163C69.7152 17.7821 69.5514 17.9458 69.5514 18.147V18.478C69.5514 18.6792 69.7152 18.8429 69.9163 18.8429H72.4009V20.5607C72.312 20.5839 72.2125 20.6074 72.1043 20.6308C71.9154 20.6678 71.7064 20.7032 71.4864 20.7356C71.2603 20.7652 71.0157 20.7905 70.7594 20.8106C70.5077 20.8304 70.2497 20.8405 69.9927 20.8405C69.3427 20.8405 68.7702 20.7666 68.2914 20.621C67.8199 20.4778 67.4227 20.2774 67.1116 20.0263C66.8085 19.7789 66.5785 19.4816 66.4287 19.1455C66.2789 18.7995 66.203 18.4155 66.203 18.0042C66.203 17.5628 66.2805 17.1619 66.4326 16.8143C66.5863 16.4701 66.8188 16.1738 67.1238 15.9335C67.4348 15.6884 67.8331 15.4966 68.3072 15.363C68.7903 15.2267 69.3676 15.1576 70.0233 15.1576C70.3431 15.1576 70.6441 15.1806 70.9185 15.2259C71.199 15.2715 71.4617 15.3339 71.7009 15.4117C71.9441 15.4895 72.1714 15.581 72.3776 15.6842C72.5897 15.7887 72.7916 15.9012 72.9778 16.0187L73.3341 16.2435V14.893L73.1913 14.8334C72.9434 14.73 72.6932 14.6355 72.4503 14.5535C72.2019 14.466 71.9429 14.3913 71.6831 14.3325C71.4195 14.2693 71.1406 14.2212 70.8566 14.1902C70.5704 14.1553 70.2575 14.1376 69.9264 14.1376C69.4873 14.1376 69.0591 14.173 68.6552 14.2425C68.2467 14.3095 67.859 14.4132 67.5043 14.5503C67.1475 14.6858 66.816 14.8615 66.5183 15.0733C66.2212 15.2872 65.9622 15.5425 65.7478 15.8328C65.5367 16.1209 65.371 16.4502 65.2553 16.8112C65.1397 17.1696 65.081 17.571 65.081 18.0042C65.081 18.6533 65.208 19.2293 65.4585 19.7162C65.7085 20.2017 66.0576 20.6113 66.4976 20.9347C66.9333 21.249 67.4528 21.4876 68.0432 21.644C68.624 21.7944 69.261 21.8706 69.9366 21.8706C70.2655 21.8706 70.5822 21.8584 70.8778 21.8342C71.1776 21.8101 71.4701 21.7752 71.75 21.7297C72.0311 21.6811 72.3055 21.6212 72.5647 21.5522C72.8268 21.4831 73.0902 21.4024 73.3472 21.3122L73.5025 21.2576V18.147C73.5025 17.9458 73.3387 17.7821 73.1376 17.7821Z" fill="white"/>
<path d="M63.2385 15.0555C62.8536 14.7651 62.3934 14.5574 61.8708 14.4384C61.3634 14.323 60.8075 14.2645 60.2186 14.2645H56.7476C56.5465 14.2645 56.3827 14.4283 56.3827 14.6294V21.3676C56.3827 21.5689 56.5465 21.7327 56.7476 21.7327H60.229C60.622 21.7327 61.0013 21.708 61.3581 21.6589C61.722 21.606 62.0636 21.5214 62.3728 21.4078C62.6916 21.2917 62.9841 21.1351 63.2415 20.9433C63.5072 20.7477 63.7355 20.5065 63.9197 20.2263C64.1026 19.9482 64.2449 19.6199 64.3422 19.2522C64.4422 18.8842 64.4929 18.4608 64.4929 17.9935C64.4929 17.293 64.3812 16.6959 64.1613 16.2205C63.9421 15.7378 63.6309 15.3453 63.2385 15.0555ZM57.4842 15.31H60.2186C60.5397 15.31 60.8472 15.3283 61.1325 15.3642C61.4095 15.3993 61.6687 15.4604 61.9051 15.5466C62.1347 15.6274 62.3426 15.7351 62.5236 15.8671C62.6998 15.9954 62.8514 16.1579 62.9754 16.3513C63.1004 16.5433 63.1982 16.7757 63.2662 17.0419C63.3357 17.314 63.3711 17.6342 63.3711 17.9935C63.3711 18.5294 63.2936 18.9764 63.1412 19.3213C62.992 19.6564 62.7816 19.9276 62.5163 20.1267C62.2486 20.3268 61.92 20.4708 61.5414 20.5546C61.1444 20.6392 60.6993 20.682 60.2186 20.682H57.4842V15.31Z" fill="white"/>
<path d="M54.8002 14.2645H53.6985V21.7327H54.8002V14.2645Z" fill="white"/>
<path d="M51.5785 17.9216C51.8902 17.5635 52.0482 17.0886 52.0482 16.5101C52.0482 16.1421 51.9848 15.8137 51.8601 15.5338C51.7306 15.2436 51.5232 14.9999 51.2463 14.8115C50.9805 14.6241 50.6379 14.4848 50.2303 14.3975C49.8356 14.3092 49.3573 14.2645 48.8086 14.2645H45.4548C45.2537 14.2645 45.0899 14.4283 45.0899 14.6294V21.7327H46.1914V18.7354H48.8086C48.9169 18.7354 49.0217 18.7338 49.1221 18.7301C49.1802 18.7282 49.2376 18.7258 49.2944 18.7225L51.4374 21.5866C51.506 21.678 51.6151 21.7327 51.7295 21.7327H52.9369L50.4776 18.555C50.9586 18.4183 51.3278 18.2061 51.5785 17.9216ZM46.1914 15.3252H48.1308C48.6804 15.3252 49.1496 15.3437 49.5275 15.3803C49.8884 15.4122 50.18 15.4749 50.3941 15.5664C50.5856 15.6485 50.7179 15.7578 50.7992 15.902C50.8835 16.0488 50.9263 16.2536 50.9263 16.5101C50.9263 16.769 50.8824 16.9744 50.7948 17.1218C50.7148 17.2589 50.5806 17.3656 50.3877 17.4471C50.169 17.5364 49.8744 17.5978 49.514 17.6295C49.1359 17.6595 48.6636 17.6747 48.1103 17.6747H46.1914V15.3252Z" fill="white"/>
<path d="M43.5308 18.1401C43.3554 17.9648 43.1291 17.8235 42.8578 17.7201C42.8413 17.7139 42.8246 17.7077 42.8077 17.7018C42.9305 17.6295 43.0372 17.5455 43.1255 17.4519C43.2653 17.3081 43.3693 17.1338 43.433 16.9382C43.4992 16.7481 43.5327 16.5235 43.5327 16.2706C43.5327 15.9899 43.4937 15.7401 43.418 15.5321C43.3435 15.3165 43.2351 15.1286 43.0982 14.9762C42.964 14.822 42.8017 14.6957 42.6177 14.6016C42.4452 14.5118 42.2538 14.4415 42.0539 14.3943C41.8587 14.3435 41.6518 14.3088 41.4392 14.2908C41.2345 14.2734 41.0255 14.2645 40.8181 14.2645H37.0003C36.7991 14.2645 36.6354 14.4283 36.6354 14.6294V21.3676C36.6354 21.5689 36.7991 21.7327 37.0003 21.7327H40.9098C41.176 21.7327 41.438 21.7221 41.6886 21.7013C41.9426 21.6802 42.1857 21.6423 42.4145 21.5878C42.6439 21.5296 42.8568 21.4517 43.049 21.3556C43.2544 21.2512 43.4319 21.1148 43.5764 20.9507C43.7247 20.7829 43.8409 20.5825 43.9218 20.355C44.0019 20.1306 44.0424 19.8659 44.0424 19.5686C44.0424 19.2794 44.0022 19.0143 43.9233 18.7815C43.8408 18.5336 43.7087 18.3179 43.5308 18.1401ZM37.737 17.2821V15.2998H40.6091C40.9186 15.2998 41.1849 15.3161 41.4044 15.3488C41.6171 15.3769 41.7957 15.4173 41.9398 15.4705C42.0666 15.5146 42.164 15.5663 42.2322 15.6265C42.3005 15.6847 42.3522 15.7471 42.3875 15.8148C42.4221 15.879 42.4437 15.9453 42.4536 16.0167C42.4657 16.1047 42.4718 16.1936 42.4718 16.2807C42.4718 16.4227 42.4515 16.5587 42.41 16.6889C42.38 16.7903 42.3123 16.8795 42.2007 16.9632C42.081 17.0551 41.8972 17.132 41.657 17.1913C41.4004 17.2516 41.0478 17.2821 40.6091 17.2821H37.737ZM42.7964 18.9831C42.8719 19.1364 42.9102 19.33 42.9102 19.5583C42.9102 19.7686 42.8776 19.9476 42.812 20.0933C42.7558 20.2234 42.6603 20.3291 42.5212 20.4158C42.3706 20.5084 42.1615 20.5785 41.9016 20.624C41.6269 20.6693 41.2795 20.6923 40.869 20.6923H37.737V18.3071H40.7823C41.1761 18.3071 41.5198 18.3349 41.806 18.39C42.0749 18.4391 42.2944 18.5161 42.4586 18.6187C42.6128 18.7149 42.7233 18.8341 42.7964 18.9831Z" fill="white"/>
<path d="M52.1985 2.90784H51.0451V10.7274H52.1985V2.90784Z" fill="white"/>
<path d="M48.7766 6.73703C49.1031 6.36211 49.2686 5.8648 49.2686 5.25911C49.2686 4.87411 49.2023 4.53023 49.0715 4.23689C48.9358 3.93282 48.7187 3.67767 48.429 3.48054C48.1506 3.28439 47.792 3.13845 47.3654 3.04711C46.9519 2.95464 46.4509 2.90784 45.8767 2.90784H42.3651C42.1544 2.90784 41.9831 3.07929 41.9831 3.28991V10.7274H43.1364V7.5891H45.8767C45.99 7.5891 46.0997 7.58748 46.205 7.58357C46.2657 7.58163 46.3258 7.57902 46.3853 7.57561L48.6293 10.5748C48.7011 10.6704 48.8154 10.7274 48.935 10.7274H50.199L47.624 7.40025C48.1278 7.25708 48.5143 7.03492 48.7766 6.73703ZM46.6153 6.43117C46.2194 6.46254 45.7248 6.47846 45.1455 6.47846H43.1364V4.01847H45.1669C45.7423 4.01847 46.2336 4.03781 46.6292 4.07617C47.0073 4.10948 47.3126 4.17513 47.5367 4.27101C47.7373 4.35698 47.8756 4.4714 47.9607 4.62238C48.0491 4.77628 48.094 4.99047 48.094 5.25911C48.094 5.53002 48.0479 5.7452 47.9564 5.89959C47.8725 6.04309 47.7322 6.1549 47.5299 6.24022C47.3011 6.33367 46.9927 6.39802 46.6153 6.43117Z" fill="white"/>
<path d="M33.2747 4.00254H36.6103V10.7274H37.7583V4.00254H41.094V2.90784H33.2747V4.00254Z" fill="white"/>
<path d="M58.0284 2.90784H57.5802C57.3856 2.90784 57.2086 3.01494 57.1185 3.1872L53.1731 10.7274H54.4531L55.4619 8.79529H60.1467L61.1553 10.7274H62.4354L58.49 3.18736C58.3998 3.01493 58.2229 2.90784 58.0284 2.90784ZM56.0417 7.69522L57.8066 4.32189L59.5672 7.69522H56.0417Z" fill="white"/>
<path d="M54.0453 0.854759C54.1059 0.829612 54.1325 0.758537 54.1035 0.69978L53.7889 0.0631783C53.7612 0.00719737 53.6935 -0.01588 53.6374 0.0115579L50.7551 1.42124C50.6982 1.44906 50.6751 1.51809 50.7038 1.57454L50.9369 2.03273C50.9638 2.08554 51.0268 2.10877 51.0815 2.08604L54.0453 0.854759Z" fill="white"/>
</svg>
