<svg width="25" height="25" viewBox="0 0 25 25" fill="none" xmlns="http://www.w3.org/2000/svg">
<path fill-rule="evenodd" clip-rule="evenodd" d="M21.2169 11.6508L13.3492 3.78312C12.8802 3.31412 12.1198 3.31412 11.6508 3.78312L3.78312 11.6508C3.31412 12.1198 3.31412 12.8802 3.78312 13.3492L11.6508 21.2169C12.1198 21.6859 12.8802 21.6859 13.3492 21.2169L21.2169 13.3492C21.6859 12.8802 21.6859 12.1198 21.2169 11.6508ZM15.7755 1.35677C13.9665 -0.452257 11.0335 -0.452257 9.22447 1.35677L1.35677 9.22447C-0.452257 11.0335 -0.452257 13.9665 1.35677 15.7755L9.22447 23.6432C11.0335 25.4523 13.9665 25.4523 15.7755 23.6432L23.6432 15.7755C25.4523 13.9665 25.4523 11.0335 23.6432 9.22447L15.7755 1.35677Z" fill="#009BA4"/>
</svg>
