<svg width="89" height="90" viewBox="0 0 89 90" fill="none" xmlns="http://www.w3.org/2000/svg">
<path d="M47.6179 48.0126L49.4606 43.9028V40.6431H39.3986V43.9028L41.2413 48.0126H47.6179ZM41.5241 42.9109H47.3343V43.6194L46.2009 46.0285H42.5162L41.3827 43.6194L41.382 42.9109H41.5241Z" fill="#078496"/>
<path d="M55.0623 21.8618V22.3618L55.0633 26.9634H71.3611V63.3931H17.6404V26.9634H33.9383V21.8618H55.0623ZM20.7674 39.1196L25.2205 42.4937C25.8775 42.8852 26.491 43.1206 27.2117 43.1206H38.0574V46.2456H27.2117C25.83 46.2456 24.4531 45.787 23.3777 45.019L23.368 45.0122L20.7674 43.061V60.1274H68.2352V43.061L65.6336 45.0122L65.6248 45.019C64.5495 45.7869 63.1724 46.2455 61.7908 46.2456H50.9451V43.1206H61.7908C62.4491 43.1205 63.0998 42.9255 63.5692 42.6392L63.7586 42.5112L68.2352 39.1196V29.9478H20.7674V39.1196ZM37.0633 26.9634H52.0779V24.9878H37.0633V26.9634Z" fill="#0E2E40" stroke="#0E2E40"/>
<path d="M43.3668 5.92236H45.4924V8.04792H43.3668V5.92236Z" fill="#078496"/>
<path d="M43.3668 0.961914H45.4924V3.08747H43.3668V0.961914Z" fill="#078496"/>
<path d="M23.1626 6.35742L24.2254 8.19865L22.3842 9.26143L21.3214 7.4202L23.1626 6.35742Z" fill="#078496"/>
<path d="M26.7098 12.5981L24.8686 13.6608L23.8058 11.8196L25.647 10.7568L26.7098 12.5981Z" fill="#078496"/>
<path d="M11.6343 27.6735L9.79309 26.6108L10.8559 24.7695L12.6971 25.8323L11.6343 27.6735Z" fill="#078496"/>
<path d="M7.26436 25.2326L5.42313 24.1698L6.4859 22.3286L8.32714 23.3914L7.26436 25.2326Z" fill="#078496"/>
<path d="M4.96057 44.4697H7.08613V46.5953H4.96057V44.4697Z" fill="#078496"/>
<path d="M0 44.4697H2.12556V46.5953H0V44.4697Z" fill="#078496"/>
<path d="M10.7896 66.215L9.72684 64.3738L11.5681 63.311L12.6308 65.1523L10.7896 66.215Z" fill="#078496"/>
<path d="M6.53299 68.6213L5.47021 66.7801L7.31145 65.7173L8.37423 67.5585L6.53299 68.6213Z" fill="#078496"/>
<path d="M25.6511 80.1662L23.8099 79.1034L24.8727 77.2622L26.7139 78.325L25.6511 80.1662Z" fill="#078496"/>
<path d="M23.2083 84.5363L21.3671 83.4736L22.4299 81.6323L24.2711 82.6951L23.2083 84.5363Z" fill="#078496"/>
<path d="M43.3668 87.8364H45.4924V89.962H43.3668V87.8364Z" fill="#078496"/>
<path d="M43.3668 82.8755H45.4924V85.001H43.3668V82.8755Z" fill="#078496"/>
<path d="M65.8218 84.4924L64.7591 82.6512L66.6003 81.5884L67.6631 83.4296L65.8218 84.4924Z" fill="#078496"/>
<path d="M62.2802 78.4598L64.1214 77.397L65.1842 79.2382L63.3429 80.301L62.2802 78.4598Z" fill="#078496"/>
<path d="M78.1418 66.1569L76.3006 65.0942L77.3634 63.2529L79.2046 64.3157L78.1418 66.1569Z" fill="#078496"/>
<path d="M82.5136 68.592L80.6724 67.5292L81.7352 65.688L83.5764 66.7508L82.5136 68.592Z" fill="#078496"/>
<path d="M86.8745 44.4697H89V46.5953H86.8745V44.4697Z" fill="#078496"/>
<path d="M81.9139 44.4697H84.0395V46.5953H81.9139V44.4697Z" fill="#078496"/>
<path d="M77.4324 27.6101L76.3696 25.7688L78.2109 24.7061L79.2736 26.5473L77.4324 27.6101Z" fill="#078496"/>
<path d="M82.5447 22.2852L83.6075 24.1264L81.7663 25.1892L80.7035 23.3479L82.5447 22.2852Z" fill="#078496"/>
<path d="M63.3462 10.6235L65.1874 11.6863L64.1246 13.5275L62.2834 12.4648L63.3462 10.6235Z" fill="#078496"/>
<path d="M65.8657 6.40137L67.7069 7.46415L66.6442 9.30538L64.8029 8.2426L65.8657 6.40137Z" fill="#078496"/>
</svg>
