<svg width="114" height="114" viewBox="0 0 114 114" fill="none" xmlns="http://www.w3.org/2000/svg">
<path d="M87.2928 37.2928L76.7284 26.7284C65.8327 15.8327 48.1673 15.8327 37.2716 26.7284L26.7072 37.2928C15.8115 48.1885 15.8115 65.8539 26.7072 76.7496L37.2716 87.314C48.1673 98.2097 65.8327 98.2097 76.7284 87.314L87.2928 76.7496C98.1885 65.8539 98.1885 48.1885 87.2928 37.2928Z" stroke="#009BA4" stroke-width="8.89009"/>
<path d="M63.9766 66.5264H60.6553L65.9111 47H69.2324L63.9766 66.5264ZM38.0127 47.541C39.2497 47.541 40.3251 47.748 41.2383 48.1621C42.1514 48.5762 42.8574 49.1552 43.3564 49.8984C43.8608 50.6364 44.1132 51.4939 44.1133 52.4707C44.1133 53.0919 43.9878 53.7078 43.7383 54.3184C43.4888 54.9289 43.0402 55.6029 42.3926 56.3408C41.7502 57.0788 40.8372 57.9632 39.6533 58.9932L37.7021 60.793V60.8965H44.3115V64.0742H32.2393V61.2393L38.1875 56.0303C38.6333 55.6269 39.013 55.2582 39.3262 54.9238C39.6394 54.5841 39.8784 54.2441 40.043 53.9043C40.2076 53.5592 40.29 53.1847 40.29 52.7812C40.29 52.3301 40.1915 51.9454 39.9951 51.627C39.7987 51.3032 39.5286 51.0531 39.1836 50.8779C38.8386 50.7028 38.4429 50.6153 37.9971 50.6152C37.5459 50.6152 37.1503 50.7088 36.8105 50.8945C36.4708 51.075 36.2048 51.3375 36.0137 51.6826C35.8279 52.0276 35.7354 52.4469 35.7354 52.9404H32C32 51.831 32.25 50.8723 32.749 50.0654C33.248 49.2588 33.9483 48.6374 34.8506 48.2021C35.7584 47.7615 36.8128 47.541 38.0127 47.541ZM57.6328 58.2607H59.584V61.3662H57.6328V64.0742H53.8662V61.3662H45.9902V58.292L52.6719 47.7646H57.6328V58.2607ZM82 50.9658L75.3984 64.0742H71.3447L77.9229 51.0449V50.9414H70.2295V47.7646H82V50.9658ZM49.9082 58.1328V58.2607H53.9463V51.9375H53.8184L49.9082 58.1328Z" fill="#009BA4"/>
</svg>
