<svg width="114" height="114" viewBox="0 0 114 114" fill="none" xmlns="http://www.w3.org/2000/svg">
<rect x="57" y="6.76671" width="70.7407" height="70.7407" rx="27.9002" transform="rotate(45 57 6.76671)" stroke="#009BA4" stroke-width="8.89009"/>
<path d="M37.082 49.3426C44.4328 49.3426 43.9585 40.332 50.3608 40.332C56.763 40.332 57.9487 49.3426 63.6395 49.3426C69.3304 49.3426 70.0418 40.332 76.9183 40.332" stroke="#009BA4" stroke-width="4.74241"/>
<path d="M37.082 61.1981C44.4328 61.1981 43.9585 52.1875 50.3608 52.1875C56.763 52.1875 57.9487 61.1981 63.6395 61.1981C69.3304 61.1981 70.0418 52.1875 76.9183 52.1875" stroke="#009BA4" stroke-width="4.74241"/>
<path d="M37.082 73.0575C44.4328 73.0575 43.9585 64.0469 50.3608 64.0469C56.763 64.0469 57.9487 73.0575 63.6395 73.0575C69.3304 73.0575 70.0418 64.0469 76.9183 64.0469" stroke="#009BA4" stroke-width="4.74241"/>
</svg>
